<?xml version="1.0" standalone="yes"?>
<svg xmlns="http://www.w3.org/2000/svg" width="96" height="100">
<path style="fill:#ffffff; stroke:none;" d="M34 4C28.822 2.6325 25.8237 4.70101 28 10L23 8C19.7363 8.80087 8.90992 15.9295 17.3403 18.2485C20.0264 18.9873 22.3121 16.1933 24.2855 14.865C29.5154 11.3446 40.8383 10.6907 42 4L43 4L43 8L45 8L45 4L48 8L57 8L57 6L53 6L54 0L51 3L50 3L50 0L42 3L41 3L40 0L34 4z"/>
<path style="fill:#ffffff; stroke:none;" d="M69 7C67.7216 3.14727 61.5638 1.39308 61.3765 6.94984C61.224 11.4765 72.3593 15.3863 74.9282 11.3897C77.6764 7.11409 71.5321 6.14955 69 7z"/>
<path style="fill:#ffffff; stroke:none;" d="M77 10C75.5141 13.9161 73.8155 16.6028 78 19L79 14L83 15L77 10z"/>
<path style="fill:#ffffff; stroke:none;" d="M49 23C58.2948 20.0634 60.2752 29.9125 64 36L66 27L67 27L67 33C80.2065 20.3789 47.5104 13.2513 49 23M10 20C-2.62472 36.5576 -5.23256 66.9281 13 81C13.1895 75.7644 8.94036 71.7281 6.87577 67C3.48295 59.2301 1.94688 50.4173 3.46451 42C4.55948 35.9269 12.993 25.2333 10 20M84 21C88.7735 33.6125 95.1183 42.6748 92.5355 57C91.1254 64.8212 83.5414 72.4456 84 80C96.3534 70.4599 98.2113 50.0975 94.3588 36C92.7591 30.1464 90.2302 22.8444 84 21M55 25L59 32L55 25z"/>
<path style="fill:#ffffff; stroke:none;" d="M18 55L31.7894 38.0895L42 28C29.3462 30.447 22.5703 44.1321 18 55M46 29L31 47L37 45L37 50L38 50L44 39L43.5177 48.6975L38 56C44.435 53.436 47.1859 54.0588 52 59L53 55L54 55L50 63L50 64C61.5533 62.196 54.4783 44.9579 53 37L52 37C49.6344 43.4928 50.5679 47.6845 53 54C44.6287 46.0904 50.8257 37.2303 46 29z"/>
<path style="fill:#ffffff; stroke:none;" d="M70 41C72.2439 54.0404 73.6087 59.1167 69 72L73 75L74 75C80.5926 64.3816 79.3771 49.6009 70 41M59 46L64 70C72.2168 64.5492 65.5653 50.2143 59 46M20 64L22 64L24 57C20.1802 58.4044 19.0959 59.9974 20 64M24 65L24 66C29.279 67.5604 45.295 70.6645 44 62L24 65M47 67C39.0495 71.5246 34.4476 71.9986 26 69C29.5548 77.8406 47.2588 76.8943 47 67M71 91C73.6904 90.9028 83.8997 84.8783 77.6775 82.8858C73.2551 81.4697 54.7066 92.7632 54 97L53 97L51 93L50 96L49 96L42 93L43 97L41 92L37 96C34.7495 90.2758 27.3336 85.6599 21.6111 82.6944C18.866 81.2719 14.9475 83.3484 16.75 86.6944C18.4216 89.7975 22.9895 90.9322 25.7778 92.5556C36.0073 98.5113 45.29 100.526 57 98.1944C61.5441 97.2898 69.9038 96.1418 71 91z"/>
</svg>
